<mxfile host="app.diagrams.net" modified="2020-11-23T18:37:49.383Z" agent="5.0 (Macintosh; Intel Mac OS X 10_15_7) AppleWebKit/537.36 (KHTML, like Gecko) Chrome/86.0.4240.193 Safari/537.36" etag="JPvjoxIv8jxqg-22c2Ro" version="13.10.0" type="github">
  <diagram id="rlv7sRolmCJ4ZecwhtMd" name="Page-1">
    <mxGraphModel dx="946" dy="646" grid="1" gridSize="10" guides="1" tooltips="1" connect="1" arrows="1" fold="1" page="1" pageScale="1" pageWidth="850" pageHeight="1100" math="0" shadow="0">
      <root>
        <mxCell id="0" />
        <mxCell id="1" parent="0" />
        <mxCell id="9pJQuLY0XMOq696xl5Il-2" value="" style="rounded=0;whiteSpace=wrap;html=1;fillColor=#f8cecc;strokeColor=#b85450;gradientColor=#ea6b66;" vertex="1" parent="1">
          <mxGeometry x="180" y="80" width="650" height="490" as="geometry" />
        </mxCell>
        <mxCell id="9pJQuLY0XMOq696xl5Il-3" value="" style="rounded=0;whiteSpace=wrap;html=1;fillColor=#d5e8d4;strokeColor=#82b366;fontSize=8;dashed=1;" vertex="1" parent="1">
          <mxGeometry x="195" y="100" width="625" height="455" as="geometry" />
        </mxCell>
        <mxCell id="9pJQuLY0XMOq696xl5Il-4" value="" style="rounded=0;whiteSpace=wrap;html=1;fillColor=#1ba1e2;strokeColor=#006EAF;fontColor=#ffffff;" vertex="1" parent="1">
          <mxGeometry x="380" y="130" width="380" height="280" as="geometry" />
        </mxCell>
        <mxCell id="9pJQuLY0XMOq696xl5Il-5" value="&lt;table&gt;&lt;tbody&gt;&lt;tr&gt;&lt;td&gt;&lt;br&gt;&lt;/td&gt;&lt;/tr&gt;&lt;/tbody&gt;&lt;/table&gt;" style="rounded=0;html=1;fillColor=#f5f5f5;strokeColor=#666666;horizontal=0;align=left;whiteSpace=wrap;gradientColor=#b3b3b3;" vertex="1" parent="1">
          <mxGeometry x="413.13" y="150" width="80" height="200" as="geometry" />
        </mxCell>
        <mxCell id="9pJQuLY0XMOq696xl5Il-6" value="" style="rounded=0;whiteSpace=wrap;html=1;fillColor=#f5f5f5;strokeColor=#666666;gradientColor=#b3b3b3;" vertex="1" parent="1">
          <mxGeometry x="520" y="150" width="80" height="200" as="geometry" />
        </mxCell>
        <mxCell id="9pJQuLY0XMOq696xl5Il-7" value="" style="rounded=0;whiteSpace=wrap;html=1;fillColor=#f5f5f5;strokeColor=#666666;gradientColor=#b3b3b3;" vertex="1" parent="1">
          <mxGeometry x="623.75" y="150" width="80" height="200" as="geometry" />
        </mxCell>
        <mxCell id="9pJQuLY0XMOq696xl5Il-29" value="" style="edgeStyle=orthogonalEdgeStyle;rounded=0;orthogonalLoop=1;jettySize=auto;html=1;" edge="1" parent="1" target="9pJQuLY0XMOq696xl5Il-21">
          <mxGeometry relative="1" as="geometry">
            <mxPoint x="300" y="270" as="sourcePoint" />
          </mxGeometry>
        </mxCell>
        <mxCell id="9pJQuLY0XMOq696xl5Il-27" value="SSH" style="edgeStyle=orthogonalEdgeStyle;rounded=0;orthogonalLoop=1;jettySize=auto;html=1;" edge="1" parent="1" source="9pJQuLY0XMOq696xl5Il-18" target="9pJQuLY0XMOq696xl5Il-26">
          <mxGeometry relative="1" as="geometry" />
        </mxCell>
        <mxCell id="9pJQuLY0XMOq696xl5Il-33" style="edgeStyle=orthogonalEdgeStyle;rounded=0;orthogonalLoop=1;jettySize=auto;html=1;" edge="1" parent="1" source="9pJQuLY0XMOq696xl5Il-18" target="9pJQuLY0XMOq696xl5Il-32">
          <mxGeometry relative="1" as="geometry" />
        </mxCell>
        <mxCell id="9pJQuLY0XMOq696xl5Il-79" value="SSH" style="edgeLabel;html=1;align=center;verticalAlign=middle;resizable=0;points=[];" vertex="1" connectable="0" parent="9pJQuLY0XMOq696xl5Il-33">
          <mxGeometry x="-0.3896" y="1" relative="1" as="geometry">
            <mxPoint as="offset" />
          </mxGeometry>
        </mxCell>
        <mxCell id="9pJQuLY0XMOq696xl5Il-18" value="Internet" style="ellipse;shape=cloud;whiteSpace=wrap;html=1;fillColor=#dae8fc;strokeColor=#6c8ebf;" vertex="1" parent="1">
          <mxGeometry x="20" y="230" width="120" height="80" as="geometry" />
        </mxCell>
        <mxCell id="9pJQuLY0XMOq696xl5Il-19" value="&lt;font color=&quot;#330000&quot; style=&quot;font-size: 8px&quot;&gt;VM w/Docker&lt;br&gt;10.0.0.12&lt;br&gt;&lt;/font&gt;" style="verticalAlign=top;verticalLabelPosition=bottom;labelPosition=center;align=center;html=1;outlineConnect=0;fillColor=#cce5ff;strokeColor=#36393d;gradientDirection=north;strokeWidth=2;shape=mxgraph.networks.web_server;" vertex="1" parent="1">
          <mxGeometry x="430" y="190" width="46.25" height="40" as="geometry" />
        </mxCell>
        <mxCell id="9pJQuLY0XMOq696xl5Il-88" style="edgeStyle=orthogonalEdgeStyle;rounded=0;orthogonalLoop=1;jettySize=auto;html=1;labelBackgroundColor=#FFFFFF;dashed=1;" edge="1" parent="1" source="9pJQuLY0XMOq696xl5Il-20" target="9pJQuLY0XMOq696xl5Il-22">
          <mxGeometry relative="1" as="geometry" />
        </mxCell>
        <mxCell id="9pJQuLY0XMOq696xl5Il-90" style="edgeStyle=orthogonalEdgeStyle;rounded=0;orthogonalLoop=1;jettySize=auto;html=1;entryX=0.88;entryY=0.5;entryDx=0;entryDy=0;entryPerimeter=0;dashed=1;labelBackgroundColor=#FFFFFF;" edge="1" parent="1" source="9pJQuLY0XMOq696xl5Il-20" target="9pJQuLY0XMOq696xl5Il-23">
          <mxGeometry relative="1" as="geometry" />
        </mxCell>
        <mxCell id="9pJQuLY0XMOq696xl5Il-91" style="edgeStyle=orthogonalEdgeStyle;rounded=0;orthogonalLoop=1;jettySize=auto;html=1;dashed=1;labelBackgroundColor=#FFFFFF;" edge="1" parent="1" source="9pJQuLY0XMOq696xl5Il-20" target="9pJQuLY0XMOq696xl5Il-19">
          <mxGeometry relative="1" as="geometry" />
        </mxCell>
        <mxCell id="9pJQuLY0XMOq696xl5Il-94" value="sys logs" style="edgeLabel;html=1;align=center;verticalAlign=middle;resizable=0;points=[];" vertex="1" connectable="0" parent="9pJQuLY0XMOq696xl5Il-91">
          <mxGeometry x="0.2254" y="1" relative="1" as="geometry">
            <mxPoint as="offset" />
          </mxGeometry>
        </mxCell>
        <mxCell id="9pJQuLY0XMOq696xl5Il-20" value="&lt;font color=&quot;#330000&quot; style=&quot;font-size: 8px&quot;&gt;ELK/Docker&lt;br&gt;10.2.0.4&lt;br&gt;51.143.32.182&lt;br&gt;&lt;/font&gt;" style="verticalAlign=top;verticalLabelPosition=bottom;labelPosition=center;align=center;html=1;outlineConnect=0;fillColor=#ffff88;strokeColor=#36393d;gradientDirection=north;strokeWidth=2;shape=mxgraph.networks.web_server;" vertex="1" parent="1">
          <mxGeometry x="703.75" y="450" width="46.25" height="40" as="geometry" />
        </mxCell>
        <mxCell id="9pJQuLY0XMOq696xl5Il-65" style="edgeStyle=orthogonalEdgeStyle;rounded=0;orthogonalLoop=1;jettySize=auto;html=1;entryX=0;entryY=0.5;entryDx=0;entryDy=0;entryPerimeter=0;labelBackgroundColor=#FFFFFF;" edge="1" parent="1" source="9pJQuLY0XMOq696xl5Il-21" target="9pJQuLY0XMOq696xl5Il-19">
          <mxGeometry relative="1" as="geometry" />
        </mxCell>
        <mxCell id="9pJQuLY0XMOq696xl5Il-66" style="edgeStyle=orthogonalEdgeStyle;rounded=0;orthogonalLoop=1;jettySize=auto;html=1;entryX=0;entryY=0.5;entryDx=0;entryDy=0;entryPerimeter=0;labelBackgroundColor=#FFFFFF;" edge="1" parent="1" source="9pJQuLY0XMOq696xl5Il-21" target="9pJQuLY0XMOq696xl5Il-24">
          <mxGeometry relative="1" as="geometry" />
        </mxCell>
        <mxCell id="9pJQuLY0XMOq696xl5Il-75" style="edgeStyle=orthogonalEdgeStyle;rounded=0;orthogonalLoop=1;jettySize=auto;html=1;entryX=0.5;entryY=0;entryDx=0;entryDy=0;entryPerimeter=0;labelBackgroundColor=#FFFFFF;" edge="1" parent="1" source="9pJQuLY0XMOq696xl5Il-21" target="9pJQuLY0XMOq696xl5Il-23">
          <mxGeometry relative="1" as="geometry" />
        </mxCell>
        <mxCell id="9pJQuLY0XMOq696xl5Il-76" style="edgeStyle=orthogonalEdgeStyle;rounded=0;orthogonalLoop=1;jettySize=auto;html=1;labelBackgroundColor=#FFFFFF;" edge="1" parent="1" source="9pJQuLY0XMOq696xl5Il-21" target="9pJQuLY0XMOq696xl5Il-22">
          <mxGeometry relative="1" as="geometry" />
        </mxCell>
        <mxCell id="9pJQuLY0XMOq696xl5Il-81" value="SSH" style="edgeLabel;html=1;align=center;verticalAlign=middle;resizable=0;points=[];" vertex="1" connectable="0" parent="9pJQuLY0XMOq696xl5Il-76">
          <mxGeometry x="-0.2954" relative="1" as="geometry">
            <mxPoint as="offset" />
          </mxGeometry>
        </mxCell>
        <mxCell id="9pJQuLY0XMOq696xl5Il-21" value="&lt;font&gt;&lt;font color=&quot;#330000&quot;&gt;&lt;span style=&quot;font-size: 8px&quot;&gt;Jump Box&lt;/span&gt;&lt;/font&gt;&lt;br&gt;&lt;font color=&quot;#330000&quot;&gt;&lt;span style=&quot;font-size: 8px&quot;&gt;10.0.0.4&lt;br&gt;104.43.229.91&lt;br&gt;&lt;/span&gt;&lt;/font&gt;&lt;/font&gt;" style="verticalAlign=top;verticalLabelPosition=bottom;labelPosition=center;align=center;html=1;outlineConnect=0;fillColor=#ffff88;strokeColor=#36393d;gradientDirection=north;strokeWidth=2;shape=mxgraph.networks.web_server;" vertex="1" parent="1">
          <mxGeometry x="290" y="120" width="48" height="40" as="geometry" />
        </mxCell>
        <mxCell id="9pJQuLY0XMOq696xl5Il-22" value="&lt;font style=&quot;font-size: 8px&quot; color=&quot;#330000&quot;&gt;VM w/Docker&lt;br&gt;10.0.0.6&lt;/font&gt;" style="verticalAlign=top;verticalLabelPosition=bottom;labelPosition=center;align=center;html=1;outlineConnect=0;fillColor=#cce5ff;strokeColor=#36393d;gradientDirection=north;strokeWidth=2;shape=mxgraph.networks.web_server;" vertex="1" parent="1">
          <mxGeometry x="640.63" y="260" width="46.25" height="40" as="geometry" />
        </mxCell>
        <mxCell id="9pJQuLY0XMOq696xl5Il-23" value="&lt;font style=&quot;font-size: 8px&quot; color=&quot;#330000&quot;&gt;VM w/Docker&lt;br&gt;10.0.0.5&lt;/font&gt;" style="verticalAlign=top;verticalLabelPosition=bottom;labelPosition=center;align=center;html=1;outlineConnect=0;fillColor=#cce5ff;strokeColor=#36393d;gradientDirection=north;strokeWidth=2;shape=mxgraph.networks.web_server;" vertex="1" parent="1">
          <mxGeometry x="536.88" y="180" width="46.25" height="40" as="geometry" />
        </mxCell>
        <mxCell id="9pJQuLY0XMOq696xl5Il-24" value="&lt;font color=&quot;#330000&quot; style=&quot;font-size: 8px&quot;&gt;VM w/Docker&lt;br&gt;10.0.0.13&lt;br&gt;&lt;/font&gt;" style="verticalAlign=top;verticalLabelPosition=bottom;labelPosition=center;align=center;html=1;outlineConnect=0;fillColor=#cce5ff;strokeColor=#36393d;gradientDirection=north;strokeWidth=2;shape=mxgraph.networks.web_server;" vertex="1" parent="1">
          <mxGeometry x="430.01" y="270" width="46.25" height="40" as="geometry" />
        </mxCell>
        <mxCell id="9pJQuLY0XMOq696xl5Il-35" style="edgeStyle=orthogonalEdgeStyle;rounded=0;orthogonalLoop=1;jettySize=auto;html=1;entryX=1;entryY=0.625;entryDx=0;entryDy=0;entryPerimeter=0;" edge="1" parent="1" source="9pJQuLY0XMOq696xl5Il-25" target="9pJQuLY0XMOq696xl5Il-18">
          <mxGeometry relative="1" as="geometry" />
        </mxCell>
        <mxCell id="9pJQuLY0XMOq696xl5Il-77" value="HTTP Port 80" style="edgeLabel;html=1;align=center;verticalAlign=middle;resizable=0;points=[];" vertex="1" connectable="0" parent="9pJQuLY0XMOq696xl5Il-35">
          <mxGeometry x="-0.0707" y="-2" relative="1" as="geometry">
            <mxPoint as="offset" />
          </mxGeometry>
        </mxCell>
        <mxCell id="9pJQuLY0XMOq696xl5Il-37" style="edgeStyle=orthogonalEdgeStyle;rounded=0;orthogonalLoop=1;jettySize=auto;html=1;" edge="1" parent="1" source="9pJQuLY0XMOq696xl5Il-25" target="9pJQuLY0XMOq696xl5Il-31">
          <mxGeometry relative="1" as="geometry" />
        </mxCell>
        <mxCell id="9pJQuLY0XMOq696xl5Il-78" value="HTTP" style="edgeLabel;html=1;align=center;verticalAlign=middle;resizable=0;points=[];" vertex="1" connectable="0" parent="9pJQuLY0XMOq696xl5Il-37">
          <mxGeometry x="-0.2523" y="1" relative="1" as="geometry">
            <mxPoint as="offset" />
          </mxGeometry>
        </mxCell>
        <mxCell id="9pJQuLY0XMOq696xl5Il-25" value="&lt;font style=&quot;font-size: 8px&quot; color=&quot;#330000&quot;&gt;Load Balancer&lt;br&gt;104.43.214.107&lt;/font&gt;" style="verticalAlign=top;verticalLabelPosition=bottom;labelPosition=center;align=center;html=1;outlineConnect=0;fillColor=#cdeb8b;strokeColor=#36393d;gradientDirection=north;strokeWidth=2;shape=mxgraph.networks.load_balancer;" vertex="1" parent="1">
          <mxGeometry x="230" y="450" width="200" height="50" as="geometry" />
        </mxCell>
        <mxCell id="9pJQuLY0XMOq696xl5Il-26" value="&lt;font color=&quot;#330000&quot;&gt;PC&lt;/font&gt;" style="verticalAlign=top;verticalLabelPosition=bottom;labelPosition=center;align=center;html=1;outlineConnect=0;fillColor=#0050ef;strokeColor=#001DBC;gradientDirection=north;strokeWidth=2;shape=mxgraph.networks.pc;fontColor=#ffffff;" vertex="1" parent="1">
          <mxGeometry x="30" y="340" width="100" height="70" as="geometry" />
        </mxCell>
        <mxCell id="9pJQuLY0XMOq696xl5Il-72" style="edgeStyle=orthogonalEdgeStyle;rounded=0;orthogonalLoop=1;jettySize=auto;html=1;labelBackgroundColor=#FFFFFF;" edge="1" parent="1" source="9pJQuLY0XMOq696xl5Il-31">
          <mxGeometry relative="1" as="geometry">
            <mxPoint x="710" y="250" as="targetPoint" />
            <Array as="points">
              <mxPoint x="531" y="393" />
              <mxPoint x="720" y="393" />
              <mxPoint x="720" y="250" />
            </Array>
          </mxGeometry>
        </mxCell>
        <mxCell id="9pJQuLY0XMOq696xl5Il-86" style="edgeStyle=orthogonalEdgeStyle;rounded=0;orthogonalLoop=1;jettySize=auto;html=1;entryX=0.988;entryY=0.815;entryDx=0;entryDy=0;entryPerimeter=0;labelBackgroundColor=#FFFFFF;" edge="1" parent="1" source="9pJQuLY0XMOq696xl5Il-31" target="9pJQuLY0XMOq696xl5Il-6">
          <mxGeometry relative="1" as="geometry" />
        </mxCell>
        <mxCell id="9pJQuLY0XMOq696xl5Il-87" style="edgeStyle=orthogonalEdgeStyle;rounded=0;orthogonalLoop=1;jettySize=auto;html=1;exitX=0.5;exitY=0;exitDx=0;exitDy=0;exitPerimeter=0;labelBackgroundColor=#FFFFFF;" edge="1" parent="1" source="9pJQuLY0XMOq696xl5Il-31" target="9pJQuLY0XMOq696xl5Il-24">
          <mxGeometry relative="1" as="geometry" />
        </mxCell>
        <mxCell id="9pJQuLY0XMOq696xl5Il-31" value="&lt;font size=&quot;1&quot; color=&quot;#330000&quot;&gt;Security Group&lt;br&gt;10.1.0.0/16&lt;br&gt;&lt;/font&gt;" style="fontColor=#ffffff;verticalAlign=top;verticalLabelPosition=bottom;labelPosition=center;align=center;html=1;outlineConnect=0;fillColor=#fa6800;strokeColor=#C73500;gradientDirection=north;strokeWidth=2;shape=mxgraph.networks.firewall;" vertex="1" parent="1">
          <mxGeometry x="496.25" y="435" width="70" height="70" as="geometry" />
        </mxCell>
        <mxCell id="9pJQuLY0XMOq696xl5Il-32" value="&lt;font size=&quot;1&quot; color=&quot;#330000&quot;&gt;Security Group&lt;br&gt;10.0.0.0/16&lt;br&gt;&lt;/font&gt;" style="fontColor=#ffffff;verticalAlign=top;verticalLabelPosition=bottom;labelPosition=center;align=center;html=1;outlineConnect=0;fillColor=#fa6800;strokeColor=#C73500;gradientDirection=north;strokeWidth=2;shape=mxgraph.networks.firewall;" vertex="1" parent="1">
          <mxGeometry x="243.13" y="230" width="70" height="70" as="geometry" />
        </mxCell>
        <mxCell id="9pJQuLY0XMOq696xl5Il-64" value="" style="endArrow=none;dashed=1;html=1;labelBackgroundColor=#FFFFFF;exitX=0.88;exitY=0.5;exitDx=0;exitDy=0;exitPerimeter=0;entryX=0.5;entryY=0;entryDx=0;entryDy=0;entryPerimeter=0;" edge="1" parent="1" source="9pJQuLY0XMOq696xl5Il-20" target="9pJQuLY0XMOq696xl5Il-32">
          <mxGeometry width="50" height="50" relative="1" as="geometry">
            <mxPoint x="410" y="330" as="sourcePoint" />
            <mxPoint x="460" y="280" as="targetPoint" />
            <Array as="points">
              <mxPoint x="810" y="470" />
              <mxPoint x="810" y="110" />
              <mxPoint x="278" y="110" />
            </Array>
          </mxGeometry>
        </mxCell>
        <mxCell id="9pJQuLY0XMOq696xl5Il-97" value="Load Balancer Back-End Pool" style="text;html=1;align=center;verticalAlign=middle;resizable=0;points=[];autosize=1;" vertex="1" parent="1">
          <mxGeometry x="426.88" y="110" width="180" height="20" as="geometry" />
        </mxCell>
        <mxCell id="9pJQuLY0XMOq696xl5Il-98" value="Azure Virtual Network 10.0.0.0/16" style="text;html=1;align=center;verticalAlign=middle;resizable=0;points=[];autosize=1;" vertex="1" parent="1">
          <mxGeometry x="418.13" y="80" width="190" height="20" as="geometry" />
        </mxCell>
        <mxCell id="9pJQuLY0XMOq696xl5Il-99" value="Azure Resource Group" style="text;html=1;align=center;verticalAlign=middle;resizable=0;points=[];autosize=1;" vertex="1" parent="1">
          <mxGeometry x="426.26" y="50" width="140" height="20" as="geometry" />
        </mxCell>
      </root>
    </mxGraphModel>
  </diagram>
</mxfile>
